<svg width="128" height="123" viewBox="0 0 128 123" fill="none" xmlns="http://www.w3.org/2000/svg">
<path d="M58.3047 70.3291L60.007 44.936C60.1489 42.95 61 40.964 62.4186 39.5453C63.8372 38.1267 65.8233 37.2756 67.8093 37.1337L93.2023 35.4314L67.8093 33.7291C65.8233 33.5872 63.8372 32.736 62.4186 31.3174C61 29.8988 60.1489 27.9128 60.007 25.9267L58.3047 0.25L56.4605 25.7849C56.3186 27.7709 55.4675 29.757 54.0489 31.1756C52.6303 32.5942 50.6442 33.4453 48.6582 33.5872L23.2651 35.2895L48.6582 37.1337C50.6442 37.2756 52.6303 38.1267 54.0489 39.5453C55.4675 40.964 56.3186 42.95 56.4605 44.936L58.3047 70.3291Z" fill="black"/>
<path d="M104.409 103.95L105.544 87.0685C105.686 85.7917 106.253 84.515 107.104 83.522C108.097 82.529 109.374 81.9615 110.651 81.9615L127.674 80.6848L110.793 79.5499C109.516 79.408 108.239 78.8406 107.246 77.9894C106.253 76.9964 105.686 75.7197 105.686 74.4429L104.551 57.5615L103.416 74.4429C103.274 75.7197 102.707 76.9964 101.856 77.9894C100.863 78.9825 99.5859 79.5499 98.3091 79.5499L81.4277 80.6848L98.3091 81.8197C99.5859 81.9615 100.863 82.529 101.856 83.3801C102.849 84.3731 103.416 85.6499 103.416 86.9266L104.409 103.95Z" fill="black"/>
<path d="M23.2651 122.25L24.4 105.369C24.5419 104.092 25.1093 102.815 25.9605 101.822C26.9535 100.829 28.2302 100.262 29.507 100.262L46.3884 99.1267L29.507 97.9918C28.2302 97.8499 26.9535 97.2825 25.9605 96.4313C24.9674 95.4383 24.4 94.1616 24.4 92.8848L23.2651 76.0034L22.1302 92.8848C21.9884 94.1616 21.4209 95.4383 20.5698 96.4313C19.5767 97.4243 18.3 97.9918 17.0233 97.9918L0 98.9848L16.8814 100.12C18.1581 100.262 19.4349 100.829 20.4279 101.68C21.4209 102.673 21.9884 103.95 21.9884 105.227L23.2651 122.25Z" fill="black"/>
</svg>
