<svg xmlns="http://www.w3.org/2000/svg" xmlns:xlink="http://www.w3.org/1999/xlink" version="1.1" x="0px" y="0px" viewBox="0 0 100 125" style="enable-background:new 0 0 100 100;" xml:space="preserve"><style type="text/css">
	.st0{display:none;}
	.st1{display:inline;fill:none;stroke:#FF0000;stroke-width:1.4667;stroke-miterlimit:10;}
	.st2{display:inline;fill:#FF0000;}
	.st3{display:inline;}
	.st4{fill:#FFFFFF;}
	.st5{fill:#FF0000;}
	.st6{display:inline;fill:none;stroke:#FF0000;stroke-miterlimit:10;}
	.st7{display:inline;fill:none;stroke:#FFFFFF;stroke-width:3;stroke-miterlimit:10;}
	.st8{display:inline;fill:#FFFFFF;}
	.st9{fill:none;stroke:#FFFFFF;stroke-width:4;stroke-miterlimit:10;}
</style><g><path d="M46.1,56.4l1.2-17.9c0.1-1.4,0.7-2.8,1.7-3.8l0,0c1-1,2.4-1.6,3.8-1.7l17.9-1.2l-17.9-1.2c-1.4-0.1-2.8-0.7-3.8-1.7l0,0   c-1-1-1.6-2.4-1.7-3.8L46.1,7L44.8,25c-0.1,1.4-0.7,2.8-1.7,3.8l0,0c-1,1-2.4,1.6-3.8,1.7l-17.9,1.2L39.3,33   c1.4,0.1,2.8,0.7,3.8,1.7l0,0c1,1,1.6,2.4,1.7,3.8L46.1,56.4z"/><path d="M78.6,80.1l0.8-11.9c0.1-0.9,0.5-1.8,1.1-2.5l0,0c0.7-0.7,1.6-1.1,2.5-1.1L95,63.7l-11.9-0.8c-0.9-0.1-1.8-0.5-2.5-1.1l0,0   c-0.7-0.7-1.1-1.6-1.1-2.5l-0.8-11.9l-0.8,11.9c-0.1,0.9-0.5,1.8-1.1,2.5l0,0c-0.7,0.7-1.6,1.1-2.5,1.1l-11.9,0.8l11.9,0.8   c0.9,0.1,1.8,0.5,2.5,1.1l0,0c0.7,0.7,1.1,1.6,1.1,2.5L78.6,80.1z"/><path d="M21.4,93l0.8-11.9c0.1-0.9,0.5-1.8,1.1-2.5l0,0c0.7-0.7,1.6-1.1,2.5-1.1l11.9-0.8l-11.9-0.8c-0.9-0.1-1.8-0.5-2.5-1.1l0,0   c-0.7-0.7-1.1-1.6-1.1-2.5l-0.8-11.9l-0.8,11.9c-0.1,0.9-0.5,1.8-1.1,2.5h0c-0.7,0.7-1.6,1.1-2.5,1.1L5,76.6l11.9,0.8   c0.9,0.1,1.8,0.5,2.5,1.1l0,0c0.7,0.7,1.1,1.6,1.1,2.5L21.4,93z"/></g><text x="0" y="115" fill="#000000" font-size="5px" font-weight="bold" font-family="'Helvetica Neue', Helvetica, Arial-Unicode, Arial, Sans-serif">Created by Heiko Maiwand</text><text x="0" y="120" fill="#000000" font-size="5px" font-weight="bold" font-family="'Helvetica Neue', Helvetica, Arial-Unicode, Arial, Sans-serif">from the Noun Project</text></svg>