<svg width="124" height="123" viewBox="0 0 124 123" fill="none" xmlns="http://www.w3.org/2000/svg">
<path fill-rule="evenodd" clip-rule="evenodd" d="M69.1121 77.4979C68.6999 77.83 65.2799 80.4923 61.8368 80.4923C58.3705 80.4923 54.9429 77.8096 54.5719 77.5094C54.2189 77.0482 53.6599 76.7493 53.0313 76.7493H40.717C30.2086 76.7493 21.0295 83.792 18.3902 93.8791C16.3434 101.702 14.0222 110.572 12.6723 115.732C12.2485 117.352 12.6053 119.076 13.6383 120.401C14.6714 121.724 16.2635 122.5 17.9522 122.5C34.2288 122.5 89.4294 122.5 105.706 122.5C107.395 122.5 108.987 121.724 110.02 120.401C111.053 119.076 111.41 117.352 110.986 115.732C109.636 110.572 107.315 101.702 105.268 93.8791C102.629 83.792 93.4496 76.7493 82.9425 76.7493H70.6423C70.0331 76.7493 69.4714 77.0329 69.1121 77.4979ZM71.4268 80.5817H82.9425C91.6888 80.5817 99.3298 86.4454 101.527 94.841C103.574 102.664 105.895 111.535 107.245 116.694C107.369 117.166 107.265 117.67 106.964 118.055C106.663 118.441 106.198 118.667 105.706 118.667H17.9522C17.4602 118.667 16.9952 118.441 16.695 118.055C16.3936 117.67 16.2893 117.166 16.4129 116.694L22.1308 94.841C24.3284 86.4454 31.9694 80.5817 40.717 80.5817H52.2391C53.6702 81.7851 57.4276 84.3248 61.8368 84.3248C66.1971 84.3248 69.9802 81.7813 71.4268 80.5817Z" fill="black"/>
<path fill-rule="evenodd" clip-rule="evenodd" d="M67.3992 66.408L68.722 78.8737C68.8328 79.9264 69.7847 80.6903 70.8448 80.5792C71.9062 80.468 72.6765 79.524 72.5645 78.4726L71.2416 66.0069C71.1295 64.9555 70.1789 64.1916 69.1175 64.3027C68.0574 64.4126 67.2871 65.3567 67.3992 66.408ZM54.9534 78.8661L56.275 66.408C56.3871 65.3567 55.6168 64.4126 54.5554 64.3027C53.4953 64.1916 52.5434 64.9555 52.4326 66.0069L51.1097 78.4649C50.9989 79.5176 51.7692 80.4617 52.8293 80.5715C53.8895 80.6827 54.8414 79.9187 54.9534 78.8661Z" fill="black"/>
<path fill-rule="evenodd" clip-rule="evenodd" d="M32.0132 114.465V120.232C32.0132 121.29 32.8788 122.149 33.9453 122.149C35.0119 122.149 35.8775 121.29 35.8775 120.232V114.465C35.8775 113.407 35.0119 112.548 33.9453 112.548C32.8788 112.548 32.0132 113.407 32.0132 114.465Z" fill="black"/>
<path fill-rule="evenodd" clip-rule="evenodd" d="M87.7808 114.465V120.232C87.7808 121.29 88.6464 122.149 89.7129 122.149C90.7795 122.149 91.6451 121.29 91.6451 120.232V114.465C91.6451 113.407 90.7795 112.548 89.7129 112.548C88.6464 112.548 87.7808 113.407 87.7808 114.465Z" fill="black"/>
<path fill-rule="evenodd" clip-rule="evenodd" d="M77.5468 41.0996C77.7232 42.363 77.8147 43.6635 77.8147 44.9921C77.8147 56.6185 70.8138 66.2712 61.837 66.2712C52.8601 66.2712 45.858 56.6185 45.858 44.9921C45.858 43.6635 45.9507 42.363 46.1272 41.0996C46.274 40.052 45.536 39.0837 44.4797 38.9381C43.4235 38.7937 42.4471 39.5257 42.3002 40.5733C42.0993 42.0079 41.9937 43.4847 41.9937 44.9921C41.9937 58.9729 51.0426 70.1036 61.837 70.1036C72.6313 70.1036 81.679 58.9729 81.679 44.9921C81.679 43.4847 81.5747 42.0079 81.3737 40.5733C81.2269 39.5257 80.2505 38.7937 79.1942 38.9381C78.138 39.0837 77.3999 40.052 77.5468 41.0996Z" fill="black"/>
<path fill-rule="evenodd" clip-rule="evenodd" d="M55.7767 60.7182C59.8033 62.6651 63.839 62.5693 67.8746 60.6531C68.8355 60.197 69.2426 59.0511 68.7827 58.0981C68.3216 57.1438 67.1674 56.7402 66.2052 57.1962C63.2915 58.5797 60.3778 58.6794 57.4705 57.2729C56.5122 56.8104 55.3542 57.2052 54.8866 58.1556C54.419 59.1061 54.8183 60.2545 55.7767 60.7182Z" fill="black"/>
<path fill-rule="evenodd" clip-rule="evenodd" d="M47.3069 32.6747L47.6972 29.9179C48.0527 27.4038 46.8213 24.9318 44.5928 23.685C44.5799 23.6774 44.5684 23.671 44.5555 23.6646C42.0823 22.3513 40.4503 19.4719 40.4503 16.1798C40.4503 11.646 43.5649 7.84803 47.5709 7.84803C48.2652 7.84803 48.935 7.96556 49.5675 8.18273C49.5727 8.18401 49.5778 8.18656 49.583 8.18784C51.8513 8.94666 54.3554 8.3207 55.9887 6.59098C57.0128 5.62903 58.297 4.97113 59.7243 4.97113C61.1695 4.97113 62.4692 5.65331 63.4224 6.72128C65.3481 8.91089 68.5787 9.4551 71.1369 8.01027C72.0734 7.48394 73.1296 7.1799 74.2477 7.1799C78.2524 7.1799 81.3671 10.9779 81.3671 15.5117C81.3671 18.4179 80.0931 20.9972 78.1082 22.5046C78.1069 22.5059 78.1056 22.5072 78.103 22.5097C76.3486 23.8524 75.4546 26.0241 75.7573 28.2009C75.9261 29.472 76.1425 31.0523 76.3653 32.6683C76.5096 33.7158 77.486 34.4504 78.5422 34.306C79.5985 34.163 80.3392 33.1946 80.1936 32.1471C79.972 30.5387 79.7569 28.9649 79.5882 27.6989C79.5869 27.6938 79.5869 27.6887 79.5856 27.6835C79.4697 26.8647 79.8059 26.0471 80.4641 25.5425C83.3173 23.3746 85.2314 19.698 85.2314 15.5117C85.2314 8.73332 80.2361 3.34744 74.2477 3.34744C72.4456 3.34744 70.7414 3.82778 69.2292 4.67858C69.2279 4.67858 69.2266 4.67986 69.2266 4.67986C68.2657 5.22279 67.0523 5.0184 66.3258 4.19186C66.3219 4.18803 66.3194 4.18548 66.3155 4.18164C64.6255 2.28713 62.2889 1.13867 59.7243 1.13867C57.2717 1.13867 55.0278 2.1926 53.2708 3.8661C53.2412 3.89421 53.2129 3.92359 53.1845 3.95297C52.5855 4.60066 51.6594 4.83699 50.8195 4.55722C49.7903 4.20464 48.7006 4.01557 47.5709 4.01557C41.5825 4.01557 36.5859 9.40145 36.5859 16.1798C36.5859 20.9831 39.1068 25.1081 42.7109 27.032C43.543 27.5047 44.0042 28.4373 43.8702 29.3839L43.4799 32.1407C43.3318 33.1882 44.0686 34.1578 45.1248 34.3048C46.1798 34.4529 47.1587 33.7222 47.3069 32.6747Z" fill="black"/>
<path fill-rule="evenodd" clip-rule="evenodd" d="M56.8623 81.9638V120.584C56.8623 121.641 57.7292 122.5 58.7945 122.5C59.861 122.5 60.7266 121.641 60.7266 120.584V81.9638C60.7266 80.9074 59.861 80.0476 58.7945 80.0476C57.7292 80.0476 56.8623 80.9074 56.8623 81.9638Z" fill="black"/>
<path fill-rule="evenodd" clip-rule="evenodd" d="M76.4942 107.992H85.7711C86.8377 107.992 87.7033 107.133 87.7033 106.075C87.7033 105.018 86.8377 104.159 85.7711 104.159H76.4942C75.4276 104.159 74.562 105.018 74.562 106.075C74.562 107.133 75.4276 107.992 76.4942 107.992Z" fill="black"/>
<path fill-rule="evenodd" clip-rule="evenodd" d="M37.8872 107.992H47.1642C48.2308 107.992 49.0964 107.133 49.0964 106.075C49.0964 105.018 48.2308 104.159 47.1642 104.159H37.8872C36.822 104.159 35.9551 105.018 35.9551 106.075C35.9551 107.133 36.822 107.992 37.8872 107.992Z" fill="black"/>
<path fill-rule="evenodd" clip-rule="evenodd" d="M61.7479 92.751C61.7479 92.751 77.0094 93.4382 81.5873 79.2505C81.9119 78.2425 81.3516 77.1631 80.3353 76.8411C79.3203 76.5179 78.2318 77.0749 77.9072 78.0816C74.2232 89.4985 61.9256 88.9236 61.9256 88.9236C60.8604 88.8738 59.9561 89.6926 59.9059 90.7491C59.8569 91.8056 60.6826 92.7024 61.7479 92.751Z" fill="black"/>
<path fill-rule="evenodd" clip-rule="evenodd" d="M61.7402 88.9236C61.7402 88.9236 49.4426 89.4985 45.7586 78.0816C45.434 77.0749 44.3456 76.5179 43.3292 76.8411C42.3142 77.1631 41.7539 78.2425 42.0785 79.2505C46.6564 93.4382 61.9179 92.751 61.9179 92.751C62.9832 92.7024 63.8089 91.8056 63.7586 90.7491C63.7097 89.6926 62.8054 88.8738 61.7402 88.9236Z" fill="black"/>
<path fill-rule="evenodd" clip-rule="evenodd" d="M68.8238 101.275V98.2573C68.8238 97.1995 67.9582 96.3411 66.8916 96.3411C65.8251 96.3411 64.9595 97.1995 64.9595 98.2573V101.275C64.9595 102.332 65.8251 103.191 66.8916 103.191C67.9582 103.191 68.8238 102.332 68.8238 101.275Z" fill="black"/>
<path fill-rule="evenodd" clip-rule="evenodd" d="M68.8238 112.469V109.453C68.8238 108.395 67.9582 107.537 66.8916 107.537C65.8251 107.537 64.9595 108.395 64.9595 109.453V112.469C64.9595 113.527 65.8251 114.385 66.8916 114.385C67.9582 114.385 68.8238 113.527 68.8238 112.469Z" fill="black"/>
<path fill-rule="evenodd" clip-rule="evenodd" d="M80.1937 32.1473C80.0624 31.1994 79.2457 30.4917 78.2796 30.4917H45.3929C44.4307 30.4917 43.614 31.1956 43.4801 32.1409L42.2847 40.5698C42.2074 41.1191 42.3736 41.6761 42.7407 42.0938C43.1078 42.5128 43.6398 42.753 44.1988 42.753H79.4595C80.0199 42.753 80.5518 42.5128 80.9177 42.0938C81.2848 41.6761 81.4509 41.1191 81.3737 40.5698C81.3737 40.5698 80.7605 36.2493 80.1937 32.1473ZM76.5948 34.3242C76.8331 36.0373 77.0636 37.6801 77.2388 38.9206H46.4208L47.0726 34.3242H76.5948Z" fill="black"/>
</svg>
