<svg xmlns="http://www.w3.org/2000/svg" xmlns:xlink="http://www.w3.org/1999/xlink" xmlns:serif="http://www.serif.com/" viewBox="0 0 97 121.25" version="1.1" xml:space="preserve" style="" x="0px" y="0px" fill-rule="evenodd" clip-rule="evenodd" stroke-linejoin="round" stroke-miterlimit="2"><rect serif:id="19" x="0.556" y="0.242" width="96" height="96" style="" fill="none"/><path d="M54.21,60.515c-0.32,0.26 -2.975,2.344 -5.648,2.344c-2.691,0 -5.352,-2.1 -5.64,-2.335c-0.274,-0.361 -0.708,-0.595 -1.196,-0.595l-9.56,0c-8.158,0 -15.284,5.513 -17.333,13.409c-1.589,6.124 -3.391,13.067 -4.439,17.106c-0.329,1.268 -0.052,2.618 0.75,3.655c0.802,1.036 2.038,1.643 3.349,1.643c12.636,-0 55.49,-0 68.126,-0c1.311,-0 2.547,-0.607 3.349,-1.643c0.802,-1.037 1.079,-2.387 0.75,-3.655c-1.048,-4.039 -2.85,-10.982 -4.439,-17.106c-2.049,-7.896 -9.175,-13.409 -17.332,-13.409l-9.549,0c-0.473,0 -0.909,0.222 -1.188,0.586Zm1.797,2.414l8.94,0c6.79,0 12.722,4.59 14.428,11.162c1.589,6.124 3.391,13.068 4.439,17.106c0.096,0.37 0.015,0.764 -0.218,1.066c-0.234,0.302 -0.595,0.479 -0.977,0.479l-68.126,-0c-0.382,-0 -0.743,-0.177 -0.976,-0.479c-0.234,-0.302 -0.315,-0.696 -0.219,-1.066l4.439,-17.106c1.706,-6.572 7.638,-11.162 14.429,-11.162l8.945,0c1.111,0.942 4.028,2.93 7.451,2.93c3.385,0 6.322,-1.991 7.445,-2.93Z"/><path d="M52.88,51.834l1.027,9.758c0.086,0.824 0.825,1.422 1.648,1.335c0.824,-0.087 1.422,-0.826 1.335,-1.649l-1.027,-9.758c-0.087,-0.823 -0.825,-1.421 -1.649,-1.334c-0.823,0.086 -1.421,0.825 -1.334,1.648Zm-9.662,9.752l1.026,-9.752c0.087,-0.823 -0.511,-1.562 -1.335,-1.648c-0.823,-0.087 -1.562,0.511 -1.648,1.334l-1.027,9.752c-0.086,0.824 0.512,1.563 1.335,1.649c0.823,0.087 1.562,-0.511 1.649,-1.335Z"/><path d="M25.409,89.452l0,4.515c0,0.828 0.672,1.5 1.5,1.5c0.828,-0 1.5,-0.672 1.5,-1.5l0,-4.515c0,-0.828 -0.672,-1.5 -1.5,-1.5c-0.828,0 -1.5,0.672 -1.5,1.5Z"/><path d="M68.703,89.452l-0,4.515c-0,0.828 0.672,1.5 1.5,1.5c0.828,-0 1.5,-0.672 1.5,-1.5l-0,-4.515c-0,-0.828 -0.672,-1.5 -1.5,-1.5c-0.828,0 -1.5,0.672 -1.5,1.5Z"/><path d="M60.758,32.023c0.137,0.989 0.208,2.007 0.208,3.047c0,9.101 -5.435,16.657 -12.404,16.657c-6.969,0 -12.405,-7.556 -12.405,-16.657c0,-1.04 0.072,-2.058 0.209,-3.047c0.114,-0.82 -0.459,-1.578 -1.279,-1.692c-0.82,-0.113 -1.578,0.46 -1.692,1.28c-0.156,1.123 -0.238,2.279 -0.238,3.459c0,10.944 7.025,19.657 15.405,19.657c8.38,0 15.404,-8.713 15.404,-19.657c0,-1.18 -0.081,-2.336 -0.237,-3.459c-0.114,-0.82 -0.872,-1.393 -1.692,-1.28c-0.82,0.114 -1.393,0.872 -1.279,1.692Z"/><path d="M43.857,47.38c3.126,1.524 6.259,1.449 9.392,-0.051c0.746,-0.357 1.062,-1.254 0.705,-2c-0.358,-0.747 -1.254,-1.063 -2.001,-0.706c-2.262,1.083 -4.524,1.161 -6.781,0.06c-0.744,-0.362 -1.643,-0.053 -2.006,0.691c-0.363,0.744 -0.053,1.643 0.691,2.006Z"/><path d="M37.282,25.428l0.303,-2.158c0.276,-1.968 -0.68,-3.903 -2.41,-4.879c-0.01,-0.006 -0.019,-0.011 -0.029,-0.016c-1.92,-1.028 -3.187,-3.282 -3.187,-5.859c0,-3.549 2.418,-6.522 5.528,-6.522c0.539,0 1.059,0.092 1.55,0.262c0.004,0.001 0.008,0.003 0.012,0.004c1.761,0.594 3.705,0.104 4.973,-1.25c0.795,-0.753 1.792,-1.268 2.9,-1.268c1.122,-0 2.131,0.534 2.871,1.37c1.495,1.714 4.003,2.14 5.989,1.009c0.727,-0.412 1.547,-0.65 2.415,-0.65c3.109,0 5.527,2.973 5.527,6.522c0,2.275 -0.989,4.294 -2.53,5.474c-0.001,0.001 -0.002,0.002 -0.004,0.004c-1.362,1.051 -2.056,2.751 -1.821,4.455c0.131,0.995 0.299,2.232 0.472,3.497c0.112,0.82 0.87,1.395 1.69,1.282c0.82,-0.112 1.395,-0.87 1.282,-1.69c-0.172,-1.259 -0.339,-2.491 -0.47,-3.482c-0.001,-0.004 -0.001,-0.008 -0.002,-0.012c-0.09,-0.641 0.171,-1.281 0.682,-1.676c2.215,-1.697 3.701,-4.575 3.701,-7.852c0,-5.306 -3.878,-9.522 -8.527,-9.522c-1.399,0 -2.722,0.376 -3.896,1.042c-0.001,0 -0.002,0.001 -0.002,0.001c-0.746,0.425 -1.688,0.265 -2.252,-0.382c-0.003,-0.003 -0.005,-0.005 -0.008,-0.008c-1.312,-1.483 -3.126,-2.382 -5.117,-2.382c-1.904,-0 -3.646,0.825 -5.01,2.135c-0.023,0.022 -0.045,0.045 -0.067,0.068c-0.465,0.507 -1.184,0.692 -1.836,0.473c-0.799,-0.276 -1.645,-0.424 -2.522,-0.424c-4.649,0 -8.528,4.216 -8.528,9.522c0,3.76 1.957,6.989 4.755,8.495c0.646,0.37 1.004,1.1 0.9,1.841c0,0 -0.303,2.158 -0.303,2.158c-0.115,0.82 0.457,1.579 1.277,1.694c0.819,0.116 1.579,-0.456 1.694,-1.276Z"/><path d="M44.7,64.011l0,30.231c0,0.828 0.673,1.5 1.5,1.5c0.828,-0 1.5,-0.672 1.5,-1.5l0,-30.231c0,-0.827 -0.672,-1.5 -1.5,-1.5c-0.827,0 -1.5,0.673 -1.5,1.5Z"/><path d="M59.941,84.385l7.202,-0c0.828,-0 1.5,-0.672 1.5,-1.5c-0,-0.828 -0.672,-1.5 -1.5,-1.5l-7.202,-0c-0.828,-0 -1.5,0.672 -1.5,1.5c0,0.828 0.672,1.5 1.5,1.5Z"/><path d="M29.969,84.385l7.202,-0c0.828,-0 1.5,-0.672 1.5,-1.5c0,-0.828 -0.672,-1.5 -1.5,-1.5l-7.202,-0c-0.827,-0 -1.5,0.672 -1.5,1.5c0,0.828 0.673,1.5 1.5,1.5Z"/><path d="M48.493,72.455c-0,0 11.848,0.538 15.402,-10.568c0.252,-0.789 -0.183,-1.634 -0.972,-1.886c-0.788,-0.253 -1.633,0.183 -1.885,0.971c-2.86,8.937 -12.407,8.487 -12.407,8.487c-0.827,-0.039 -1.529,0.602 -1.568,1.429c-0.038,0.827 0.603,1.529 1.43,1.567Z"/><path d="M48.487,69.459c-0,-0 -9.547,0.45 -12.407,-8.487c-0.252,-0.788 -1.097,-1.224 -1.886,-0.971c-0.788,0.252 -1.223,1.097 -0.971,1.886c3.554,11.106 15.402,10.568 15.402,10.568c0.827,-0.038 1.468,-0.74 1.429,-1.567c-0.038,-0.827 -0.74,-1.468 -1.567,-1.429Z"/><path d="M53.986,79.127l0,-2.362c0,-0.828 -0.672,-1.5 -1.5,-1.5c-0.828,0 -1.5,0.672 -1.5,1.5l0,2.362c0,0.828 0.672,1.5 1.5,1.5c0.828,-0 1.5,-0.672 1.5,-1.5Z"/><path d="M53.986,87.89l0,-2.361c0,-0.828 -0.672,-1.5 -1.5,-1.5c-0.828,-0 -1.5,0.672 -1.5,1.5l0,2.361c0,0.828 0.672,1.5 1.5,1.5c0.828,0 1.5,-0.672 1.5,-1.5Z"/><path d="M62.813,25.015c-0.102,-0.742 -0.736,-1.296 -1.486,-1.296l-25.531,0c-0.747,0 -1.381,0.551 -1.485,1.291l-0.928,6.598c-0.06,0.43 0.069,0.866 0.354,1.193c0.285,0.328 0.698,0.516 1.132,0.516l27.374,0c0.435,0 0.848,-0.188 1.132,-0.516c0.285,-0.327 0.414,-0.763 0.354,-1.193c-0,0 -0.476,-3.382 -0.916,-6.593Zm-2.794,1.704c0.185,1.341 0.364,2.627 0.5,3.598c-0,0 -23.925,0 -23.925,0c0,0 0.506,-3.598 0.506,-3.598l22.919,0Z"/><text x="0" y="112" fill="#000000" font-size="5px" font-weight="bold" font-family="'Helvetica Neue', Helvetica, Arial-Unicode, Arial, Sans-serif">Created by Jackvisual assets</text><text x="0" y="117" fill="#000000" font-size="5px" font-weight="bold" font-family="'Helvetica Neue', Helvetica, Arial-Unicode, Arial, Sans-serif">from the Noun Project</text></svg>