<svg xmlns="http://www.w3.org/2000/svg" data-name="Layer 1" viewBox="0 0 100 125" x="0px" y="0px"><title>Artboard 1 copy 66@1x</title><path d="M93.32,8.32a1.5,1.5,0,0,0-1.18-.54c-2,0-19.54.52-24.8,4.9A13.29,13.29,0,0,0,64,28.78,74.35,74.35,0,0,0,48.77,48.4C42.36,32.33,29.48,19.82,8.51,9.23a1.5,1.5,0,0,0-1.73,2.4c.33.34,32.32,32.34,30.8,74-.31,3.11-.33,5-.33,5.07v.09s0,.1,0,.14l0,.16c0,.05,0,.09,0,.13a.77.77,0,0,0,.07.16l.06.11.11.15a.56.56,0,0,1,.05.08l0,0,0,0,.11.09.1.08.16.09.1,0,.2.07.09,0a1.55,1.55,0,0,0,.31,0H55a1.51,1.51,0,0,0,1.08-.46,1.48,1.48,0,0,0,.42-1.09c-.86-26.22,6.46-44.7,13.2-56a13.31,13.31,0,0,0,4.94,1.44q.61.06,1.23.06a13.27,13.27,0,0,0,8.49-3.08c5.25-4.39,8.87-21.57,9.27-23.52A1.52,1.52,0,0,0,93.32,8.32ZM14.52,15.9c17,9.93,27.34,21.55,32.39,36.12a98.12,98.12,0,0,0-7,19.88C36.61,46.36,22.54,25.8,14.52,15.9Zm39,73.32H40.39c.09-1.15.15-2.3.19-3.43,1.08-10.71,5.67-36.53,25-54.44l0,0a12.34,12.34,0,0,0,1.48,1.5C60.27,44.27,52.9,62.76,53.47,89.22ZM68,29.48a.94.94,0,0,0-.09-.12c1.12-.94,2.27-1.87,3.48-2.75-.83,1.11-1.7,2.35-2.59,3.71A9.11,9.11,0,0,1,68,29.48Zm14.49,1.31a10.21,10.21,0,0,1-7.51,2.35,10.4,10.4,0,0,1-3.63-1,56.38,56.38,0,0,1,8.94-11,1.5,1.5,0,0,0-1.67-2.47,68.46,68.46,0,0,0-12.26,8.12,10.3,10.3,0,0,1,3-11.74c3.37-2.81,15-3.88,21-4.14C88.94,16.77,85.81,28,82.44,30.79Z"/><text x="0" y="115" fill="#000000" font-size="5px" font-weight="bold" font-family="'Helvetica Neue', Helvetica, Arial-Unicode, Arial, Sans-serif">Created by Sneha Cecil</text><text x="0" y="120" fill="#000000" font-size="5px" font-weight="bold" font-family="'Helvetica Neue', Helvetica, Arial-Unicode, Arial, Sans-serif">from the Noun Project</text></svg>