<svg width="127" height="122" viewBox="0 0 127 122" fill="none" xmlns="http://www.w3.org/2000/svg">
<path d="M126.538 0.782056C126.329 0.532186 126.066 0.332224 125.769 0.196927C125.472 0.061631 125.148 -0.00554476 124.821 0.000357903C121.912 0.000357903 96.3925 0.753105 88.7397 7.09355C85.4189 9.87241 83.134 13.6819 82.2526 17.9092C81.3712 22.1365 81.9445 26.5359 83.8803 30.3997C74.9459 38.5638 67.4553 48.165 61.722 58.8015C52.3961 35.5387 33.6569 17.4293 3.14751 2.09936C2.68462 1.87226 2.15582 1.81574 1.65501 1.93982C1.1542 2.06391 0.713795 2.36058 0.412003 2.77714C0.11021 3.19371 -0.033437 3.70321 0.00656949 4.21518C0.046576 4.72714 0.267647 5.20843 0.630525 5.57358C1.11064 6.06576 47.6531 52.3886 45.4416 112.695C44.9906 117.197 44.9615 119.933 44.9615 120.034V120.165C44.9615 120.165 44.9615 120.31 44.9615 120.367V120.599C44.9615 120.671 44.9615 120.729 44.9615 120.787C44.9865 120.868 45.0207 120.946 45.0634 121.019L45.1507 121.178L45.3107 121.395C45.3382 121.432 45.3625 121.47 45.3834 121.511L45.5435 121.641L45.689 121.757L45.9218 121.887H46.0672L46.3582 121.989H46.4892C46.6391 122.004 46.7902 122.004 46.9402 121.989H70.7861C71.0794 121.988 71.3696 121.928 71.6395 121.814C71.9093 121.7 72.1535 121.533 72.3574 121.323C72.5615 121.115 72.721 120.868 72.826 120.596C72.9311 120.325 72.9795 120.035 72.9685 119.745C71.7173 81.7892 82.3672 55.0377 92.1732 38.68C94.4099 39.8333 96.8513 40.5414 99.3605 40.7645C99.9521 40.8224 100.549 40.8513 101.15 40.8513C105.665 40.8478 110.035 39.2702 113.502 36.3928C121.14 30.0378 126.407 5.16825 126.989 2.34545C127.045 1.78613 126.884 1.22674 126.538 0.782056ZM11.8915 11.7548C36.6249 26.1294 51.6686 42.9503 59.0159 64.0417C54.5925 73.2428 51.178 82.8911 48.8316 92.8198C44.0304 55.8484 23.5599 26.0859 11.8915 11.7548ZM68.6329 117.892H49.5299C49.6609 116.227 49.7482 114.563 49.8064 112.927C51.3777 97.4231 58.0557 60.0464 86.179 34.12C86.8332 34.9036 87.5536 35.63 88.3323 36.2914C78.4535 52.8229 67.7308 79.5888 68.5601 117.892H68.6329ZM89.6999 31.4131C89.661 31.3518 89.6172 31.2937 89.569 31.2393C91.1985 29.8786 92.8716 28.5324 94.632 27.2585C93.4245 28.8653 92.1587 30.6603 90.8638 32.629C90.4503 32.2487 90.0615 31.8426 89.6999 31.4131ZM110.781 33.3094C109.277 34.5674 107.537 35.5158 105.661 36.0997C103.785 36.6837 101.812 36.8915 99.8552 36.7112C98.0209 36.5524 96.2311 36.0619 94.5738 35.2636C98.2189 29.4325 102.589 24.0824 107.581 19.3402C107.99 18.9938 108.256 18.5096 108.328 17.9802C108.401 17.4508 108.274 16.9134 107.974 16.4708C107.673 16.0281 107.219 15.7114 106.698 15.5811C106.177 15.4508 105.626 15.5162 105.151 15.7646C98.7984 19.0342 92.8182 22.9751 87.3139 27.519C86.1429 24.5909 85.9346 21.3688 86.7188 18.3155C87.503 15.2622 89.2393 12.5346 91.6786 10.5243C96.5816 6.45661 113.502 4.90769 122.232 4.53131C120.166 13.0142 115.612 29.2706 110.709 33.3094H110.781Z" fill="black"/>
</svg>
